# xmcd CD database file
#
# Track frame offsets:
#	150
#	24140
#	54802
#	81002
#	100267
#	122745
#	148230
#	171672
#	187185
#	208317
#	232332
#	253365
#
# Disc length: 3615 seconds
#
# Revision: 2
# Processed by: cddbd v1.5.2PL0 Copyright (c) Steve Scherf et al.
# Submitted via: CDex 1.51
#
DISCID=b60e1d0c
DTITLE=Andy LaVerne - Double Standard
DYEAR=1993
DGENRE=Jazz
TTITLE0=How Deep Is The Ocean
TTITLE1=In Love With Night
TTITLE2=My Romance
TTITLE3=Big Pant People
TTITLE4=Like Someone In Love
TTITLE5=Why Ask Why
TTITLE6=Body And Soul
TTITLE7=Spin Doctor
TTITLE8=Night And Day
TTITLE9=Six Of One
TTITLE10=Just Friends
TTITLE11=And I Quote
EXTD=YEAR: 1993
EXTT0=
EXTT1=
EXTT2=
EXTT3=
EXTT4=
EXTT5=
EXTT6=
EXTT7=
EXTT8=
EXTT9=
EXTT10=
EXTT11=
PLAYORDER=
